<svg version="1.1" id="Capa_1" xmlns="http://www.w3.org/2000/svg" xmlns:xlink="http://www.w3.org/1999/xlink" x="0px" y="0px"
	 viewBox="0 0 1000 1000" style="enable-background:new 0 0 1000 1000;" xml:space="preserve">

<rect x="0" y="0" width="100%" height="100%" fill="rgba(255,255,255,0)"/>
<g transform="matrix(0.3552 0 0 0.3566 500.0302 500.0501)" id="120115">
<g style="" vector-effect="non-scaling-stroke">
		<g transform="matrix(1 0 0 1 -18.4859 5.844)" id="Layer_1">
<path style="stroke: rgb(0,0,0); stroke-width: 0.0938; stroke-dasharray: none; stroke-linecap: butt; stroke-dashoffset: 0; stroke-linejoin: miter; stroke-miterlimit: 4; is-custom-font: none; font-file-url: none; fill: rgb(0,0,0); fill-rule: nonzero; opacity: 1;" transform=" translate(-740.5141, -1235.7283)" d="M 1479.65 2303.28 c -1.5801 -9.1401 -4.67 -18.21 -10.25 -25.7 c -9.28 -13.02 -24.66 -20.8501 -40.35 -22.6301 c -14.1801 -0.5898 -28.38 -0.1099 -42.5701 -0.3101 c -9.71 -21.7898 -25.13 -40.48 -41.96 -57.1599 c -33.3201 -32.47 -73.15 -57.3699 -114.15 -78.95 c -5.3199 -3.4299 -7.85 -9.6201 -10.87 -14.9199 c -8.79 -17.6802 -14.45 -36.9502 -16.58 -56.5801 c -3.64 -28.9501 2.95 -59.8301 21.21 -83 c 16.04 -0.0701 32.08 -0.0601 48.12 0.02 c 0.0906 -0.0024 0.1815 -0.0033 0.2722 -0.0056 l 8.2278 -2.4244 c 14.6801 -1.3 29.61 -7.05 39.23 -18.61 c 7.41 -8.98 11.25 -20.47 12.12 -31.97 c 0.79 -6.99 0.47 -14.03 0.53 -21.04 c -0.02 -15.35 0.02 -30.71 -0.01 -46.0601 c -0.35 -13.6 -3.24 -27.7999 -11.85 -38.7 c -10.3101 -13.1899 -27.4401 -19.58 -43.84 -19.6899 c 2.5099 -0.24 5.0199 -0.4801 7.5499 -0.7001 c 0.7001 -45.28 8.65 -90.14 19.52 -134.01 c 11.05 -44.08 24.85 -87.4099 39.4399 -130.4299 c 13.0901 -39.4701 26.64 -78.79 39.7201 -118.27 c 28.86 -87.83 54.08 -177.27 67.1 -268.97 c 4.4399 -30.66 7.5699 -61.53 9.12 -92.4601 c 1.01 -7.89 0.34 -15.84 0.92 -23.7499 c 0.73 -12.31 0.76 -24.64 0.6599 -36.96 c -0.08 -10.35 -1.0699 -20.6599 -0.96 -31.01 c -2 -43.09 -6.67 -86.1 -14.45 -128.5601 c -15.13 -84.0499 -41.62 -165.8199 -76.0701 -243.8899 c -7.64 -17.3101 -15.45 -34.5901 -25.12 -50.89 c -33.83 -58.41 -75.4 -112.2301 -122.0699 -160.9301 c -57.15 -59.5 -122.8101 -111.03 -195.11 -150.9099 c -84.12 -46.6501 -177.09 -77.05 -272.41 -89.76 c 10.87 6.6499 22.3 12.3799 33.29 18.84 c 66.8799 37.7799 132.3699 78.22 194.2 123.87 c 66.99 49.3 130.1 104.4299 184.3 167.6899 c 26.4299 30.79 50.73 63.46 71.8099 98.15 c 9.27 14.9301 17.67 30.38 26.09 45.8 c 20.38 37.9301 39.65 76.5499 55.3101 116.7 c 14.72 37.38 25.54 76.28 32.12 115.92 c 4.12 24.1899 7.0599 48.5701 10.08 72.9199 c 0.5901 6.17 1.9501 12.26 2.05 18.47 c -5.5601 -19.6799 -10.4401 -39.5898 -16.41 -59.1699 c -24.2999 -81.59 -58.7999 -159.99 -101 -233.87 c -18.65 -32.75 -38.24 -65.0399 -60.4399 -95.52 c -48.5701 -67.7001 -107.54 -128.12 -175.15 -176.92 C 959.86 300.1599 904 269.61 844.61 248.37 c -19.8099 -7.2001 -40.12 -12.89 -60.6801 -17.5 c 16.53 -5.0399 33.1602 -9.7101 49.6301 -14.9501 C 821.47 204.0601 807.98 193.73 794.55 183.45 c -32.1401 -24.1499 -65.3101 -46.8699 -98.6401 -69.33 C 662.76 91.8201 629.3301 69.9299 595.8 48.21 c -7.0701 -4.8799 -14.7001 -8.8 -22.28 -12.8 c -12.39 -6.22 -24.89 -12.2599 -37 -19 c -2.0801 7.1301 -1.21 14.6501 -2.23 21.9401 c -2.22 54.65 0.8899 110.33 17.6699 162.74 c 5.14 15.88 11.42 31.5 20.0801 45.8099 c 34.1299 -14.3198 71.54 -18.5099 108.23 -19.6499 c -73.3101 27.23 -143.88 62.6899 -207.29 108.6699 c -16.7 12.1401 -32.94 25 -47.98 39.16 c -1.62 1.9301 -4.23 0.5601 -6.28 0.37 c -19.67 -4.3 -40.38 0.05 -58.02 9.27 c -5.85 3.23 -12.59 5.8301 -16.45 11.61 c -5.65 8.53 -8.3 18.58 -10.62 28.4301 c -6.78 29.78 -8.62 60.3899 -14.36 90.35 c -1.42 5.63 -2.09 11.77 -5.54 16.62 C 240.08 622.7 168.04 715.3301 105.38 814.3301 C 94.69 830.97 84.2 847.75 73.06 864.1 c -9.55 13.27 -18.14 27.59 -22.47 43.4801 c -4.1 14.4399 -4.3 30.1099 0.41 44.4299 c 9.31 29.34 24.12 57.21 44.83 80.11 c 13.12 14.48 28.51 26.88 45.45 36.61 c 5.92 3.55 12.39 6.0701 18.31 9.63 c 12.3 4.65 25.39 6.78 38.35 8.6801 c 13.47 1.8199 27.06 2.6 40.65 2.62 c 12.93 -19.37 27.91 -37.28 43.51 -54.53 c 28.32 -31.01 58.87 -59.9301 90.68 -87.33 c 2.95 -3.15 7.53 -1.26 11.28 -1.41 c 63.56 2.99 128.0001 0.7799 190.07 -14.26 c 48.76 -11.8199 96.15 -32.64 134.4 -65.59 c 17.6699 -14.8501 32.77 -32.47 46.4299 -51 c -0.3799 4.5699 -0.3699 9.45 -2.86 13.5 c -1.8099 3.9299 -5.12 7.4199 -5.16 11.96 c -3.97 42.74 -16.5399 84.27 -33.33 123.64 c -16.63 38.9301 -37.46 75.97 -60.5299 111.42 C 611.71 1139.62 563.22 1198.24 511.8301 1253.9 c -24.1401 26.46 -49.86 51.4199 -74.6 77.3099 c -53.28 56.49 -99.58 119.86 -134.8701 189.13 c -40.5099 79.5801 -67.04 167.13 -71.35 256.6 c -0.05 2.66 -0.03 5.3401 -0.02 8.04 c -9.54 -0.01 -19.17 -0.37 -28.57 1.63 c -15.8 2.91 -31.39 10.52 -41.13 23.65 c -5.47 7.23 -8.52 15.98 -10.15 24.8199 c -1.33 13.9301 -0.5 27.9401 -0.73 41.92 c 0.28 13.6 -0.94 27.37 1.74 40.8 c 2.51 12.3899 9.76 23.6499 19.83 31.26 C 182.64 1957.17 195.8 1961.47 209 1963 c 12.46 1.78 25.12 0.21 37.59 1.27 c 12.45 13.51 20.22 31.0499 23.12 49.12 c 3.82 24.64 -0.22 50.0299 -9.09 73.2001 c -3.41 8.5 -7.19 16.9399 -12.49 24.46 c -1.54 2.0798 -3.24 4.1699 -5.53 5.48 c -35.01 17.6699 -69.07 37.71 -99.42 62.6799 c -24.86 20.74 -48.19 45.1301 -60.4 75.6401 c -17.65 0.5898 -35.55 4.8298 -50.63 14.2798 c -10.58 6.52 -19.46 15.9302 -24.91 27.1401 c -3.79 7.29 -5.29 15.4299 -7.24 23.3401 V 2455 c 493.66 0.0901 987.3301 0.02 1480.99 0.03 c 0.02 -39.01 0 -78.02 0 -117.03 C 1480.85 2326.4199 1481.63 2314.75 1479.65 2303.28 z M 1364.1899 903.61 c 1.42 -0.3199 1.6201 2.13 0.6001 2.7201 C 1363.34 906.62 1363.13 904.1699 1364.1899 903.61 z M 1273 1915.02 c -100.67 0 -201.33 0 -302 0 c -11.8201 -0.21 -23.6799 0.4299 -35.47 -0.3301 c 1.3899 -0.6599 2.8899 -1.08 4.4399 -1.0099 c 115.6801 0.0099 231.35 0.0099 347.03 0 c 3.83 0.1 7.85 -0.6101 11.51 0.9099 C 1290.04 1915.51 1281.5 1914.8 1273 1915.02 z M 508.64 606.72 c 8.5699 -1.62 17.74 -0.72 25.64 3.0701 c 8.77 4.2 15.04 13.45 15.0699 23.25 c 1 12.1899 -6.17 23.54 -15.5099 30.76 C 515.37 678.02 490.84 682.4199 468.05 680.05 c -21.08 -2.1401 -42.67 -1.5601 -63.22 3.96 c 5.13 -7.15 11.32 -13.45 17.13 -20.04 c 12.14 -13.26 25.45 -25.49 40.04 -36.03 C 476 618.0601 491.51 609.46 508.64 606.72 z M 395.62 461.61 c 1.36 -2.7899 3.32 -5.49 6.24 -6.77 c 5.01 -2.4 10.69 -1.1801 15.95 -0.5699 c 18 3.29 34.9 10.6699 51.41 18.33 c -2.65 1.7101 -5.54 2.98 -8.47 4.12 c -12.01 4.99 -24.2 10.03 -37.17 11.78 c -5.52 0.6799 -11.05 1.84 -16.64 1.52 c -6.62 -0.3701 -12.49 -5.63 -13.89 -12.05 C 392.29 472.4199 393.2 466.6599 395.62 461.61 z M 715.5901 806.6 c -20.3901 21.17 -45.1802 37.77 -71.7301 50.2101 c -20.2899 9.46 -41.5699 16.6299 -62.99 23.0599 c -32.86 9.64 -66.74 15.9701 -100.93 18.1801 c -23.27 1.76 -46.62 1.1299 -69.93 1.6399 c -20.24 0.3101 -41.22 1.5801 -59.79 10.42 c -11.83 5.4701 -21.63 14.24 -31.13 22.99 c -22.98 22.03 -43.44 46.53 -66.63 68.35 c -17.05 16.02 -37.57 29.4301 -60.87 33.87 c -10.3 2.03 -21.01 1.6101 -31.21 -0.73 c -4.75 -1.21 -9.6 -2.6799 -13.54 -5.6899 c 5 1.46 9.77 4.0399 15.09 4.1 c 14.66 0.95 28.36 -6.05 40.26 -13.88 c 22.66 -15.51 42.01 -35.24 60.87 -55.0499 c 20.12 -20.8701 39.3 -42.6901 60.9 -62.0601 c 4.53 -3.8401 8.99 -7.79 13.85 -11.22 c 9.77 -6.98 21.06 -11.6801 32.77 -14.21 c 22.17 -4.6702 44.92 -3.4601 67.42 -3.6001 c 10.69 0.21 21.33 -1.09 32.01 -0.98 c 27.48 -1.53 54.95 -4.88 81.77 -11.25 c 28.22 -6.45 55.9099 -15.29 82.6599 -26.3401 C 661.63 822.85 687.3 807.15 708.77 786.76 c 19.08 -17.87 34.9399 -39.1899 46.3201 -62.73 c 13.8599 -27.8501 21.3499 -58.51 24.5698 -89.3301 c 0.7401 8.3801 0.53 16.8701 -0.5099 25.22 C 775.24 714 753.9199 767.6799 715.5901 806.6 z M 387.59 1491.66 c 34.43 -66.3101 79.33 -127.1 132.16 -179.92 c 13.9099 -14.11 28.78 -27.22 43.49 -40.48 c 55.5601 -50.34 109.5801 -102.45 160.78 -157.23 c 27.0601 -29.0601 53.2 -58.99 77.86 -90.1201 c 24.75 -31.5001 48.26 -64.0999 68.17 -98.91 c 17.73 -31.01 32.98 -63.99 39.8199 -99.25 c -3 44.11 -12.65 88.03 -30.59 128.5601 c -15.29 34.84 -35.6899 67.21 -58.22 97.7999 c -22.6401 30.67 -47.4401 59.7001 -73.1201 87.85 c -24.27 26.36 -49.2 52.12 -74.76 77.24 c -12.52 12.8301 -25.7799 24.89 -38.51 37.51 c -16.47 15.53 -32.8099 31.2001 -49.51 46.48 C 527.25 1354.25 477.84 1416.97 442.11 1487.04 c -18.79 36.6499 -33.93 75.1599 -45.3199 114.75 c -12.67 43.5 -20.44 88.27 -25.85 133.21 c -0.2 1.6801 -0.49 3.37 -0.78 5.08 c -20.28 0.13 -40.56 0.25 -60.84 -0.0699 C 321.09 1653.6 347.2 1569.02 387.59 1491.66 z M 251.97 1849.05 c -8.73 -0.0801 -19.12 -6.5601 -17.77 -16.41 c -1.52 -0.1 -3.03 -0.28 -4.53 -0.4 c 1.9901 -14.49 10.94 -27.54 23.08 -35.5 c 9.35 -6.3099 20.34 -9.78 31.42 -11.41 c 8.25 -0.7799 16.54 -1.1499 24.83 -0.99 c 53.05 -0.0299 106.1 0.05 159.15 -0.0299 c -6.87 1.6799 -13.95 2.6299 -20.56 5.2799 c -14.7 5.4601 -28.21 16.3201 -33.66 31.4 c 168.69 0 337.3801 -0.02 506.07 0.01 c 4.1899 0 8.47 0.33 12.5701 -0.78 c -3.04 -5.6599 -6.3201 -11.3099 -11.03 -15.76 c -12.27 -12.1599 -29.6201 -18.0399 -46.6101 -19.0299 c 11.3301 -0.87 22.7101 -0.27 34.0701 -0.4401 c 100.3301 0 200.67 0 301 0 c 11.88 0.14 23.87 -0.63 35.64 1.4 c 15.2999 2.62 30.58 9.1 40.91 21.0499 c 6.1599 7.42 10.6799 16.4701 11.75 26.14 c -0.3201 -0.2 -0.9501 -0.59 -1.27 -0.7899 l -1.02 0.58 c 0.9299 6.13 -3.75 11.24 -8.97 13.64 c -5.55 2.9399 -12.01 1.9299 -18.03 2.0699 c -104 -0.0199 -208.01 -0.01 -312.01 -0.01 c -6.3201 -0.0299 -12.63 0.1001 -18.9399 -0.11 c -175.5701 0.16 -351.1501 -0.0499 -526.72 0.11 C 358.22 1849.05 305.09 1849.09 251.97 1849.05 z M 310.84 1988.12 c -3.28 -8.96 -7.3 -17.63 -11.91 -25.98 c 20.22 -0.1 40.45 -0.23 60.68 0.09 c 10.32 19.17 18.14 39.97 20.4 61.75 c 4.1 31.9399 -3.98 64.3701 -18.23 92.9099 c -20.19 0.2302 -40.38 0.1101 -60.57 0.0701 c 9.14 -18.45 15.78 -38.27 18.16 -58.78 C 321.93 2034.58 319.25 2010.37 310.84 1988.12 z M 1429.13 2315.22 c -4.79 6.55 -13.4 8.75 -21.12 8.8901 c -117 -0.01 -234.01 0 -351.01 0 c -25.23 -0.1101 -50.47 0.2 -75.7 -0.1501 c -138.76 0.1401 -277.53 0.01 -416.3 0.0601 c -56.03 -0.0701 -112.07 0.1199 -168.1 -0.0901 c -41.63 0.3801 -83.27 0.05 -124.91 0.1602 c -50 -0.01 -100.01 0.03 -150.01 -0.02 c -8.34 0.0798 -16.84 -3.29 -22.08 -9.9102 l -1.22 -0.0698 c 0.13 -3.4102 0.29 -7.01 2.34 -9.8701 c 3.23 -12.5999 11.69 -23.4299 21.72 -31.46 c 14.01 -11 31.64 -16.6201 49.23 -18.2 c 8.3 -1.0801 16.69 -0.3601 25.04 -0.54 c 84.66 -0.01 169.33 0 253.99 -0.01 c 6.04 0.02 12.1 -0.28 18.12 0.4399 c -16.88 1.6401 -33.8 6.8601 -47.44 17.1899 c -8.6 6.1902 -15.55 14.6602 -19.89 24.3301 h 0.94 c 190.16 0.03 380.32 0.04 570.4799 -0.01 l 0.89 0.01 c -6.9301 -14.1299 -19.2999 -25.04 -33.47 -31.5801 c -10.34 -4.9399 -21.62 -7.5298 -32.9401 -8.9199 c 5.72 -0.96 11.54 -0.3301 17.3101 -0.49 c 135 0 270 0 405 0 c 12.37 0.1401 24.86 -0.7 37.1 1.6699 c 23.22 3.74 46.53 15.9602 58.01 37.28 c 1.37 3.24 4.4 6.6001 3.12 10.3301 c 2.12 3.1199 3.38 6.8 3.79 10.5701 C 1431.3 2314.9299 1429.85 2315.1299 1429.13 2315.22 z" stroke-linecap="round"/>
</g>
		<g transform="matrix(1 0 0 1 -275.435 -1020.7698)" id="Layer_1">
<path style="stroke: rgb(0,0,0); stroke-width: 0.0938; stroke-dasharray: none; stroke-linecap: butt; stroke-dashoffset: 0; stroke-linejoin: miter; stroke-miterlimit: 4; is-custom-font: none; font-file-url: none; fill: rgb(0,0,0); fill-rule: nonzero; opacity: 1;" transform=" translate(-483.565, -209.1144)" d="M 522.19 168.81 c 6.83 28.05 16.56 55.92 33.1 79.82 c -26.16 12.56 -51.76 26.26 -77.37 39.9 c -22.09 -37.79 -44.09 -75.64 -66.08 -113.49 c 11.86 -9.47 25.35 -16.66 39.01 -23.17 c 20.34 -9.53 41.76 -16.64 63.54 -22.07 C 514.35 127.87 518.87 154.03 522.19 168.81 z" stroke-linecap="round"/>
</g>
		<g transform="matrix(1 0 0 1 -327.9956 -758.1401)" id="Layer_1">
<path style="stroke: rgb(123,143,142); stroke-width: 0.0938; stroke-dasharray: none; stroke-linecap: butt; stroke-dashoffset: 0; stroke-linejoin: miter; stroke-miterlimit: 4; is-custom-font: none; font-file-url: none; fill: rgb(123,143,142); fill-rule: nonzero; opacity: 1;" transform=" translate(-431.0043, -471.7442)" d="M 401.86 454.84 c 5.01 -2.4 10.69 -1.18 15.95 -0.57 c 18 3.29 34.9 10.67 51.41 18.33 c -2.65 1.71 -5.54 2.98 -8.47 4.12 c -12.01 4.99 -24.2 10.03 -37.17 11.78 c -5.52 0.68 -11.05 1.84 -16.64 1.52 c -6.62 -0.37 -12.49 -5.63 -13.89 -12.05 c -0.76 -5.55 0.15 -11.31 2.57 -16.36 C 396.98 458.82 398.94 456.12 401.86 454.84 z" stroke-linecap="round"/>
</g>
		<g transform="matrix(1 0 0 1 -281.8634 -584.9038)" id="Layer_1">
<path style="stroke: rgb(123,143,142); stroke-width: 0.0938; stroke-dasharray: none; stroke-linecap: butt; stroke-dashoffset: 0; stroke-linejoin: miter; stroke-miterlimit: 4; is-custom-font: none; font-file-url: none; fill: rgb(123,143,142); fill-rule: nonzero; opacity: 1;" transform=" translate(-477.1366, -644.9804)" d="M 508.64 606.72 c 8.57 -1.62 17.74 -0.72 25.64 3.07 c 8.77 4.2 15.04 13.45 15.0699 23.25 c 1 12.19 -6.17 23.54 -15.5099 30.76 c -18.47 14.22 -43 18.62 -65.79 16.25 c -21.08 -2.14 -42.67 -1.56 -63.22 3.96 c 5.13 -7.15 11.32 -13.45 17.13 -20.04 c 12.14 -13.2599 25.45 -25.49 40.04 -36.03 C 476 618.06 491.51 609.46 508.64 606.72 z" stroke-linecap="round"/>
</g>
		<g transform="matrix(1 0 0 1 -295.5302 -394.2232)" id="Layer_1">
<path style="stroke: rgb(123,143,142); stroke-width: 0.0938; stroke-dasharray: none; stroke-linecap: butt; stroke-dashoffset: 0; stroke-linejoin: miter; stroke-miterlimit: 4; is-custom-font: none; font-file-url: none; fill: rgb(123,143,142); fill-rule: nonzero; opacity: 1;" transform=" translate(-463.4698, -835.661)" d="M 755.09 724.03 c 13.86 -27.85 21.35 -58.51 24.5699 -89.33 c 0.7401 8.38 0.53 16.87 -0.5099 25.22 c -3.91 54.08 -25.23 107.76 -63.56 146.68 c -20.39 21.17 -45.1801 37.77 -71.73 50.21 c -20.29 9.46 -41.57 16.63 -62.99 23.06 c -32.86 9.64 -66.74 15.97 -100.93 18.18 c -23.27 1.76 -46.62 1.13 -69.93 1.64 c -20.24 0.31 -41.22 1.58 -59.79 10.42 c -11.83 5.47 -21.63 14.24 -31.13 22.99 c -22.98 22.03 -43.44 46.53 -66.63 68.35 c -17.05 16.02 -37.57 29.43 -60.87 33.8699 c -10.3 2.03 -21.01 1.6101 -31.21 -0.73 c -4.75 -1.21 -9.6 -2.6799 -13.54 -5.6899 c 5 1.46 9.77 4.0399 15.09 4.1 c 14.66 0.95 28.36 -6.05 40.26 -13.88 c 22.66 -15.51 42.01 -35.24 60.87 -55.05 c 20.12 -20.87 39.3 -42.69 60.9 -62.06 c 4.53 -3.84 8.99 -7.79 13.85 -11.22 c 9.77 -6.98 21.06 -11.68 32.77 -14.21 c 22.17 -4.67 44.92 -3.46 67.42 -3.6 c 10.69 0.21 21.33 -1.09 32.01 -0.98 c 27.48 -1.53 54.95 -4.88 81.77 -11.25 c 28.22 -6.45 55.91 -15.29 82.66 -26.34 c 27.19 -11.56 52.86 -27.2599 74.33 -47.65 C 727.85 768.89 743.71 747.57 755.09 724.03 z" stroke-linecap="round"/>
</g>
		<g transform="matrix(1 0 0 1 -149.405 53.0979)" id="Layer_1">
<path style="stroke: rgb(123,143,142); stroke-width: 0.0938; stroke-dasharray: none; stroke-linecap: butt; stroke-dashoffset: 0; stroke-linejoin: miter; stroke-miterlimit: 4; is-custom-font: none; font-file-url: none; fill: rgb(123,143,142); fill-rule: nonzero; opacity: 1;" transform=" translate(-609.595, -1282.9822)" d="M 870.05 925 c 17.73 -31.01 32.98 -63.99 39.82 -99.25 c -3 44.11 -12.65 88.03 -30.59 128.56 c -15.29 34.84 -35.69 67.21 -58.22 97.8 c -22.64 30.67 -47.44 59.7001 -73.12 87.85 c -24.27 26.36 -49.2 52.12 -74.76 77.24 c -12.52 12.8301 -25.78 24.89 -38.51 37.51 c -16.47 15.53 -32.81 31.2001 -49.51 46.48 c -57.91 53.0601 -107.32 115.78 -143.05 185.8501 c -18.79 36.6499 -33.93 75.1599 -45.32 114.75 c -12.67 43.5 -20.44 88.27 -25.85 133.21 c -0.2 1.6801 -0.49 3.37 -0.78 5.08 c -20.28 0.13 -40.56 0.25 -60.84 -0.0699 c 11.77 -86.41 37.88 -170.99 78.27 -248.35 c 34.43 -66.3101 79.33 -127.1 132.16 -179.92 c 13.91 -14.11 28.78 -27.22 43.49 -40.48 c 55.56 -50.34 109.58 -102.45 160.78 -157.23 c 27.06 -29.0601 53.2 -58.99 77.86 -90.1201 C 826.63 992.41 850.14 959.81 870.05 925 z" stroke-linecap="round"/>
</g>
		<g transform="matrix(1 0 0 1 605.4769 -324.9167)" id="Layer_1">
<path style="stroke: rgb(85,86,86); stroke-width: 0.0938; stroke-dasharray: none; stroke-linecap: butt; stroke-dashoffset: 0; stroke-linejoin: miter; stroke-miterlimit: 4; is-custom-font: none; font-file-url: none; fill: rgb(85,86,86); fill-rule: nonzero; opacity: 1;" transform=" translate(-1364.4769, -904.9675)" d="M 1364.1899 903.61 c 1.42 -0.32 1.6201 2.13 0.6001 2.72 C 1363.34 906.62 1363.13 904.17 1364.1899 903.61 z" stroke-linecap="round"/>
</g>
		<g transform="matrix(1 0 0 1 -406.8825 -688.8092)" id="Layer_1">
<path style="stroke: rgb(192,204,204); stroke-width: 0.0938; stroke-dasharray: none; stroke-linecap: butt; stroke-dashoffset: 0; stroke-linejoin: miter; stroke-miterlimit: 4; is-custom-font: none; font-file-url: none; fill: rgb(192,204,204); fill-rule: nonzero; opacity: 1;" transform=" translate(-352.1175, -541.075)" d="M 572.04 246.9 C 563.38 232.5901 557.1 216.97 551.96 201.0901 C 535.1799 148.6799 532.0701 93 534.29 38.35 c 1.02 -7.2899 0.1499 -14.8099 2.23 -21.9401 C 529 11.61 520.97 7.6699 512.96 3.79 c -1.33 6.51 -1.27 13.1899 -1.6799 19.79 c -0.28 3.5898 -0.22 7.1899 -0.0701 10.7799 c -0.52 3.76 -1.0599 7.52 -1.0699 11.3199 c -0.3099 8.8801 -0.2201 17.77 -0.04 26.6502 c -0.21 5.8999 0.77 11.76 0.79 17.6599 c 0.0399 4 0.16 7.99 0.5699 11.96 c -5.21 1.8101 -10.58 3.1001 -15.86 4.66 c -42.27 12.66 -82.8199 31.35 -119.48 55.9401 c 2.63 6.21 6.48 11.77 9.78 17.6199 c 22.23 38.3801 44.7 76.6201 66.92 115 c 0.86 1.5801 1.66 3.1901 2.47 4.79 c -5.88 4.0801 -12.4 7.0601 -18.5099 10.75 c -34.89 20.21 -69.42 41.22 -101.8 65.3101 c -5.8 4.3999 -12.46 8.3201 -16.07 14.8999 c -4.95 8.8501 -7.17 18.8601 -9.49 28.6301 c -6.16 28.5599 -8.19 57.8099 -13.51 86.51 c -1.4 6.0999 -2.2599 12.6499 -5.98 17.8699 c -6.77 9.1602 -14.44 17.5901 -21.46 26.54 C 233.58 594.4 198.75 638.4 165.72 683.75 c -22.6899 31.1599 -45.0099 62.61 -66.06 94.9 c -15.48 23.59 -30.42 47.5399 -45.86 71.16 c -13.84 19.33 -27.78 40.4399 -29.47 64.8499 c -0.49 4.8401 -0.49 9.7201 0.02 14.5601 c 0.45 7.8701 2.97 15.41 5.53 22.8101 c 10.22 28.52 25.43 55.61 46.77 77.3199 c 20.2 21.26 45.83 37.09 73.43 46.8199 c 3.06 1.14 6.28 1.7201 9.51 2.1901 c -5.92 -3.5601 -12.39 -6.08 -18.31 -9.63 c -16.94 -9.73 -32.33 -22.13 -45.45 -36.61 c -20.71 -22.9 -35.52 -50.77 -44.83 -80.11 c -4.71 -14.3201 -4.51 -29.99 -0.41 -44.4299 C 54.92 891.6899 63.51 877.37 73.06 864.1 c 11.14 -16.35 21.63 -33.13 32.32 -49.7699 c 62.66 -99 134.7 -191.6301 208.35 -282.6001 c 3.45 -4.85 4.12 -10.99 5.54 -16.62 c 5.74 -29.96 7.58 -60.5699 14.36 -90.35 c 2.32 -9.8501 4.97 -19.9 10.62 -28.4299 c 3.86 -5.78 10.6 -8.3801 16.45 -11.6101 c 17.64 -9.22 38.35 -13.5699 58.02 -9.27 c 2.05 0.1901 4.66 1.5601 6.28 -0.3699 c 15.04 -14.1602 31.28 -27.02 47.98 -39.1602 c 63.41 -45.98 133.98 -81.4399 207.29 -108.6699 C 643.5801 228.39 606.1699 232.5801 572.04 246.9 z M 477.92 288.53 c -22.09 -37.79 -44.09 -75.64 -66.08 -113.49 c 11.86 -9.47 25.35 -16.66 39.0099 -23.17 c 20.34 -9.5299 41.76 -16.64 63.54 -22.0699 c -0.04 -1.9301 4.48 24.23 7.7999 39.01 C 529.02 196.86 538.75 224.73 555.29 248.63 C 529.13 261.1899 503.53 274.89 477.92 288.53 z" stroke-linecap="round"/>
</g>
		<g transform="matrix(1 0 0 1 -347.875 579.2573)" id="Layer_1">
<path style="stroke: rgb(123,143,142); stroke-width: 0.0938; stroke-dasharray: none; stroke-linecap: butt; stroke-dashoffset: 0; stroke-linejoin: miter; stroke-miterlimit: 4; is-custom-font: none; font-file-url: none; fill: rgb(123,143,142); fill-rule: nonzero; opacity: 1;" transform=" translate(-411.125, -1809.1415)" d="M 284.17 1785.33 c 8.25 -0.7799 16.54 -1.1499 24.83 -0.99 c 53.05 -0.0299 106.1 0.05 159.15 -0.0299 c -6.87 1.6799 -13.95 2.6299 -20.56 5.2799 c -14.7 5.4601 -28.21 16.3201 -33.66 31.4 c -50.64 -0.04 -101.29 0.02 -151.93 -0.03 c -7.03 0.03 -14.69 -0.7999 -20.94 3.13 c -3.2 1.64 -5.24 4.6801 -6.64 7.9 c 10.51 0.79 21.05 0.17 31.58 0.36 c 31.67 0 63.33 -0.01 95 0 c 16.91 -0.15 33.83 0.3101 50.74 -0.26 c 58.44 -0.1599 116.9 0.04 175.34 -0.11 c 1.92 0.0601 3.7 0.88 5.5 1.49 c -11.17 0.9401 -22.39 0.25 -33.58 0.4601 c -43 0 -86 0 -129 0 c -5.68 -0.04 -11.39 0.2899 -17.04 -0.4301 c -9.58 -1.52 -19.31 -0.49 -28.96 -0.77 c -49.93 -0.0599 -99.87 0.11 -149.8 -0.09 c -1.52 -0.1 -3.03 -0.28 -4.53 -0.4 c 1.99 -14.49 10.94 -27.54 23.08 -35.5 C 262.1 1790.4301 273.09 1786.96 284.17 1785.33 z" stroke-linecap="round"/>
</g>
		<g transform="matrix(1 0 0 1 327.615 579.3779)" id="Layer_1">
<path style="stroke: rgb(123,143,142); stroke-width: 0.0938; stroke-dasharray: none; stroke-linecap: butt; stroke-dashoffset: 0; stroke-linejoin: miter; stroke-miterlimit: 4; is-custom-font: none; font-file-url: none; fill: rgb(123,143,142); fill-rule: nonzero; opacity: 1;" transform=" translate(-1086.615, -1809.2622)" d="M 874.93 1785.4301 c 11.33 -0.87 22.71 -0.27 34.07 -0.4401 c 100.33 0 200.67 0 301 0 c 11.88 0.14 23.87 -0.63 35.64 1.4 c 15.2999 2.62 30.58 9.1 40.91 21.0499 c 6.1599 7.42 10.6799 16.4701 11.75 26.14 c -0.3201 -0.2 -0.9501 -0.59 -1.27 -0.7899 c -2.49 -3.0901 -4.38 -6.88 -7.97 -8.8501 c -6.3101 -3.9099 -14.02 -2.8899 -21.0601 -2.97 c -101.67 0.03 -203.33 0 -305 0.01 c -9.98 0.0701 -19.95 -0.1899 -29.92 0.2001 c -0.13 -0.2401 -0.38 -0.7201 -0.51 -0.9601 c -3.04 -5.6599 -6.32 -11.3099 -11.03 -15.76 C 909.27 1792.3 891.92 1786.42 874.93 1785.4301 z" stroke-linecap="round"/>
</g>
		<g transform="matrix(1 0 0 1 -84.46 597.0559)" id="Layer_1">
<path style="stroke: rgb(92,112,113); stroke-width: 0.0938; stroke-dasharray: none; stroke-linecap: butt; stroke-dashoffset: 0; stroke-linejoin: miter; stroke-miterlimit: 4; is-custom-font: none; font-file-url: none; fill: rgb(92,112,113); fill-rule: nonzero; opacity: 1;" transform=" translate(-674.54, -1826.9401)" d="M 932.57 1820.22 c 0.13 0.24 0.38 0.72 0.51 0.9601 c 2.06 3.9099 3.14 8.22 4.26 12.48 c -105.11 -0.0601 -210.23 -0.01 -315.34 -0.03 c -9.8 -0.11 -19.62 0.21 -29.42 -0.16 c -1.8 -0.61 -3.58 -1.4299 -5.5 -1.49 c -58.44 0.15 -116.9 -0.0499 -175.34 0.11 c 0.53 -3.75 1.37 -7.4299 2.19 -11.1 c 168.69 0 337.38 -0.02 506.07 0.01 C 924.19 1821 928.47 1821.33 932.57 1820.22 z" stroke-linecap="round"/>
</g>
		<g transform="matrix(1 0 0 1 -434.825 596.7707)" id="Layer_1">
<path style="stroke: rgb(169,189,188); stroke-width: 0.0938; stroke-dasharray: none; stroke-linecap: butt; stroke-dashoffset: 0; stroke-linejoin: miter; stroke-miterlimit: 4; is-custom-font: none; font-file-url: none; fill: rgb(169,189,188); fill-rule: nonzero; opacity: 1;" transform=" translate(-324.175, -1826.655)" d="M 241.06 1824.09 c 6.25 -3.9299 13.91 -3.1 20.94 -3.13 c 50.64 0.05 101.29 -0.01 151.93 0.03 c -0.82 3.67 -1.66 7.35 -2.19 11.1 c -16.91 0.5701 -33.83 0.11 -50.74 0.26 c -31.67 -0.01 -63.33 0 -95 0 c -10.53 -0.1899 -21.07 0.4301 -31.58 -0.36 C 235.82 1828.77 237.86 1825.73 241.06 1824.09 z" stroke-linecap="round"/>
</g>
		<g transform="matrix(1 0 0 1 356.055 597.3991)" id="Layer_1">
<path style="stroke: rgb(169,189,189); stroke-width: 0.0938; stroke-dasharray: none; stroke-linecap: butt; stroke-dashoffset: 0; stroke-linejoin: miter; stroke-miterlimit: 4; is-custom-font: none; font-file-url: none; fill: rgb(169,189,189); fill-rule: nonzero; opacity: 1;" transform=" translate(-1115.055, -1827.2833)" d="M 933.08 1821.1801 c 9.97 -0.39 19.94 -0.13 29.92 -0.2001 c 101.67 -0.01 203.33 0.02 305 -0.01 c 7.04 0.0801 14.75 -0.9399 21.0601 2.97 c 3.59 1.9701 5.48 5.76 7.97 8.8501 l -1.02 0.58 c -16.99 0.52 -34.01 0.05 -51.01 0.21 c -102.55 0.05 -205.11 -0.1 -307.66 0.0801 C 936.22 1829.4 935.14 1825.09 933.08 1821.1801 z" stroke-linecap="round"/>
</g>
		<g transform="matrix(1 0 0 1 -435.4795 610.9706)" id="Layer_1">
<path style="stroke: rgb(56,76,77); stroke-width: 0.0938; stroke-dasharray: none; stroke-linecap: butt; stroke-dashoffset: 0; stroke-linejoin: miter; stroke-miterlimit: 4; is-custom-font: none; font-file-url: none; fill: rgb(56,76,77); fill-rule: nonzero; opacity: 1;" transform=" translate(-323.5204, -1840.8549)" d="M 234.2 1832.64 c 49.93 0.2 99.87 0.03 149.8 0.09 c 9.65 0.28 19.38 -0.75 28.96 0.77 c -0.85 5.14 -1.18 10.36 -1.62 15.5699 c -53.12 -0.0199 -106.25 0.02 -159.37 -0.0199 C 243.24 1848.97 232.85 1842.49 234.2 1832.64 z" stroke-linecap="round"/>
</g>
		<g transform="matrix(1 0 0 1 -84.2878 611.3857)" id="Layer_1">
<path style="stroke: rgb(37,58,61); stroke-width: 0.0938; stroke-dasharray: none; stroke-linecap: butt; stroke-dashoffset: 0; stroke-linejoin: miter; stroke-miterlimit: 4; is-custom-font: none; font-file-url: none; fill: rgb(37,58,61); fill-rule: nonzero; opacity: 1;" transform=" translate(-674.7122, -1841.2699)" d="M 412.96 1833.5 c 5.65 0.72 11.36 0.39 17.04 0.4301 c 43 0 86 0 129 0 c 11.19 -0.2101 22.41 0.48 33.58 -0.4601 c 9.8 0.37 19.62 0.05 29.42 0.16 c 105.11 0.02 210.23 -0.03 315.34 0.03 c 0.62 5.0699 0.8199 10.1799 0.72 15.2999 c -175.57 0.16 -351.15 -0.0499 -526.72 0.11 C 411.78 1843.86 412.11 1838.64 412.96 1833.5 z" stroke-linecap="round"/>
</g>
		<g transform="matrix(1 0 0 1 357.7343 611.37)" id="Layer_1">
<path style="stroke: rgb(56,75,77); stroke-width: 0.0938; stroke-dasharray: none; stroke-linecap: butt; stroke-dashoffset: 0; stroke-linejoin: miter; stroke-miterlimit: 4; is-custom-font: none; font-file-url: none; fill: rgb(56,75,77); fill-rule: nonzero; opacity: 1;" transform=" translate(-1116.7343, -1841.2542)" d="M 937.34 1833.66 c 102.55 -0.1801 205.1099 -0.03 307.66 -0.0801 c 17 -0.1599 34.02 0.3101 51.01 -0.21 c 0.9299 6.13 -3.75 11.24 -8.97 13.64 c -5.55 2.9399 -12.01 1.9299 -18.03 2.0699 c -104 -0.0199 -208.01 -0.01 -312.01 -0.01 c -6.32 -0.0299 -12.63 0.1001 -18.94 -0.11 C 938.16 1843.84 937.96 1838.73 937.34 1833.66 z" stroke-linecap="round"/>
</g>
		<g transform="matrix(1 0 0 1 241.881 -245.9671)" id="Layer_1">
<path style="stroke: rgb(192,204,204); stroke-width: 0.0938; stroke-dasharray: none; stroke-linecap: butt; stroke-dashoffset: 0; stroke-linejoin: miter; stroke-miterlimit: 4; is-custom-font: none; font-file-url: none; fill: rgb(192,204,204); fill-rule: nonzero; opacity: 1;" transform=" translate(-1000.881, -983.9172)" d="M 1488.03 912.01 c -3.49 -89.6001 -21.5901 -178.63 -53.5701 -262.41 C 1420.77 613.01 1404.21 577.55 1385.91 543.05 c -34.92 -65.3901 -77.3401 -126.9001 -127.0801 -181.91 c -46.14 -51.2101 -98.5699 -96.84 -156.13 -134.84 C 1051.87 192.75 997.2 164.96 940.01 144 c -77.02 -28.47 -158.22 -45.14 -240.05 -51.21 c -5.22 -0.3701 -9.72 -3.24 -14.25 -5.5701 C 642.27 64.22 598.4 42.04 554.95 19.0801 C 547.29 15.1 521.1001 6.79 512.96 3.79 c 7.4196 7.1815 55.1486 27.9487 60.5601 31.6199 c 7.58 4 15.21 7.9202 22.28 12.8 c 33.53 21.72 66.96 43.6101 100.1099 65.91 c 33.3301 22.4601 66.5 45.1801 98.6401 69.33 c 13.4299 10.28 26.9199 20.6101 39.01 32.47 c -16.47 5.24 -33.1001 9.9102 -49.6301 14.9501 c 20.5601 4.61 40.8701 10.2999 60.6801 17.5 c 59.39 21.24 115.25 51.7899 166.41 88.5599 c 67.61 48.8 126.58 109.22 175.15 176.92 c 22.2 30.4801 41.7899 62.77 60.4399 95.52 c 42.2001 73.88 76.7001 152.28 101 233.87 c 5.97 19.5801 10.85 39.49 16.41 59.1699 c -0.1 -6.21 -1.46 -12.2999 -2.05 -18.47 c -3.02 -24.3499 -5.96 -48.73 -10.08 -72.9199 c -6.58 -39.64 -17.4 -78.54 -32.12 -115.92 c -15.66 -40.15 -34.9301 -78.7699 -55.3101 -116.7 c -8.4199 -15.42 -16.8199 -30.87 -26.09 -45.8 c -21.08 -34.6901 -45.38 -67.36 -71.8099 -98.15 c -54.2001 -63.26 -117.3101 -118.3899 -184.3 -167.6899 c -61.8301 -45.65 -127.3201 -86.0901 -194.2 -123.87 c -10.99 -6.4601 -22.42 -12.1901 -33.29 -18.84 c 95.3201 12.71 188.29 43.1099 272.41 89.76 c 72.2999 39.8799 137.96 91.4099 195.11 150.9099 c 46.6699 48.7 88.24 102.52 122.0699 160.9301 c 9.67 16.2999 17.48 33.58 25.12 50.89 c 34.4501 78.0699 60.9401 159.84 76.0701 243.8899 C 1453.33 862.89 1458 905.9 1460 948.99 c -0.11 10.3501 0.88 20.66 0.96 31.01 c 0.1001 12.3201 0.0701 24.65 -0.6599 36.96 c -0.5801 7.91 0.09 15.8599 -0.92 23.7499 c -1.55 30.9301 -4.6801 61.8 -9.12 92.4601 c -13.02 91.7 -38.24 181.14 -67.1 268.97 c -13.0801 39.48 -26.63 78.7999 -39.7201 118.27 c -14.59 43.02 -28.3899 86.35 -39.4399 130.4299 c -10.87 43.87 -18.8199 88.73 -19.52 134.01 c -2.53 0.22 -5.04 0.4601 -7.5499 0.7001 c 16.3999 0.11 33.5299 6.5 43.84 19.6899 c 8.61 10.9 11.5 25.1 11.85 38.7 c 0.03 15.3501 -0.01 30.7101 0.01 46.0601 c -0.0601 7.01 0.26 14.05 -0.53 21.04 c -0.87 11.5 -4.71 22.99 -12.12 31.97 c -9.62 11.5599 -24.5499 17.3099 -39.23 18.61 l -8.2278 2.4244 c 16.3533 -0.4176 33.056 0.9501 48.9878 -3.6444 c 10.7424 -3.098 20.8761 -8.1543 28.9127 -16.0565 c 8.2736 -8.1351 13.3448 -19.208 15.4055 -30.559 c 1.1512 -6.3417 0.9875 -12.9072 1.1235 -19.3412 c 0.1461 -6.9149 0.2029 -13.8318 0.1702 -20.7482 c -0.051 -10.7896 -0.3196 -21.5781 -0.8057 -32.3569 c -0.2131 -4.7257 -0.1187 -9.2892 -1.688 -13.7284 c -1.6189 -4.5797 -2.9763 -9.354 -5.7511 -13.4296 c -3.5507 -5.9314 -8.2484 -11.1792 -13.8271 -15.2703 c -7.6371 -5.8422 -16.6697 -9.6045 -25.9883 -11.7993 c -6.3988 -1.5071 -12.9753 -1.9756 -19.5292 -2.1746 c -2.8793 -0.0874 -7.3845 0.736 -10.0774 -0.202 c -1.4441 -0.5029 -1.2211 -0.7504 -1.1124 -2.4169 c 0.1135 -1.7421 0.2806 -3.4828 0.4354 -5.2217 c 1.1899 -13.3739 2.946 -26.6943 5.1467 -39.9385 c 4.3153 -25.9686 10.3337 -51.6263 17.175 -77.0371 c 10.3101 -37.77 22.3301 -75.05 34.97 -112.1 c 14.51 -41.21 28.5701 -82.5801 43.1801 -123.75 c 27.42 -79.0701 53.15 -158.91 71.47 -240.65 C 1480.65 1094.65 1491.95 1003.28 1488.03 912.01 z" stroke-linecap="round"/>
</g>
		<g transform="matrix(1 0 0 1 358.0199 684.4537)" id="Layer_1">
<path style="stroke: rgb(111,121,122); stroke-width: 0.0938; stroke-dasharray: none; stroke-linecap: butt; stroke-dashoffset: 0; stroke-linejoin: miter; stroke-miterlimit: 4; is-custom-font: none; font-file-url: none; fill: rgb(111,121,122); fill-rule: nonzero; opacity: 1;" transform=" translate(-1117.0199, -1914.3379)" d="M 935.53 1914.6899 c 1.39 -0.6599 2.89 -1.08 4.4399 -1.0099 c 115.6801 0.0099 231.35 0.0099 347.03 0 c 3.83 0.1 7.85 -0.6101 11.51 0.9099 c -8.47 0.92 -17.01 0.2101 -25.51 0.4301 c -100.67 0 -201.33 0 -302 0 C 959.18 1914.8101 947.32 1915.45 935.53 1914.6899 z" stroke-linecap="round"/>
</g>
		<g transform="matrix(1 0 0 1 -418.9971 809.6429)" id="Layer_1">
<path style="stroke: rgb(123,143,142); stroke-width: 0.0938; stroke-dasharray: none; stroke-linecap: butt; stroke-dashoffset: 0; stroke-linejoin: miter; stroke-miterlimit: 4; is-custom-font: none; font-file-url: none; fill: rgb(123,143,142); fill-rule: nonzero; opacity: 1;" transform=" translate(-340.0029, -2039.5271)" d="M 298.93 1962.14 c 20.22 -0.1 40.45 -0.23 60.68 0.09 c 10.32 19.17 18.14 39.97 20.4 61.75 c 4.1 31.9399 -3.98 64.3701 -18.23 92.9099 c -20.19 0.2302 -40.38 0.1101 -60.57 0.0701 c 9.14 -18.45 15.78 -38.27 18.16 -58.78 c 2.56 -23.6 -0.12 -47.8099 -8.53 -70.0599 C 307.56 1979.16 303.54 1970.49 298.93 1962.14 z" stroke-linecap="round"/>
</g>
		<g transform="matrix(1 0 0 1 0 980.1074)" id="Layer_1">
<path style="stroke: rgb(192,204,204); stroke-width: 0.0938; stroke-dasharray: none; stroke-linecap: butt; stroke-dashoffset: 0; stroke-linejoin: miter; stroke-miterlimit: 4; is-custom-font: none; font-file-url: none; fill: rgb(192,204,204); fill-rule: nonzero; opacity: 1;" transform=" translate(-759, -2209.9916)" d="M 1509.6 2286.3899 c -7.8199 -13.5898 -21.5399 -22.8899 -36.2 -27.76 c -8.86 -2.8398 -18.1 -4.71 -27.4301 -4.8098 c -3.97 -0.0701 -7.9399 -0.22 -11.88 -0.6201 c -2.01 -4.5601 -4.09 -9.0898 -6.77 -13.28 c -2.0599 -3.95 -4.49 -7.6799 -7.0499 -11.29 c -6.4301 -11.7 -15.98 -21.24 -25.14 -30.7898 c -7.14 -6.8701 -14.13 -13.9402 -22.11 -19.8401 c -29.8 -24.53 -63.36 -43.99 -97.63 -61.5 c -5.09 -3.01 -7.53 -8.7 -10.4 -13.5701 c -20.2953 -34.4392 -26.3226 -84.8032 -5.35 -120.34 c 3.5021 -6.5964 8.3988 -12.2729 12.5453 -18.4463 c 0.0212 -0.0315 0.0436 -0.0621 0.0647 -0.0936 c -16.04 -0.0801 -32.08 -0.0901 -48.12 -0.02 c -18.26 23.1699 -24.85 54.0499 -21.21 83 c 2.13 19.6299 7.7899 38.8999 16.58 56.5801 c 3.02 5.2998 5.55 11.49 10.87 14.9199 c 41 21.5801 80.83 46.48 114.15 78.95 c 16.83 16.6799 32.25 35.3701 41.96 57.1599 c 14.1901 0.2002 28.39 -0.2798 42.5701 0.3101 c 15.6899 1.78 31.0699 9.6101 40.35 22.6301 c 5.58 7.49 8.6699 16.5598 10.25 25.7 c 1.98 11.47 1.2 23.1399 1.34 34.72 c 0 39.01 0.02 78.02 0 117.03 C 987.3301 2455.02 493.66 2455.0901 0 2455 v 1 h 1518 v -144.3301 C 1516.3101 2302.9399 1514.37 2294.02 1509.6 2286.3899 z" stroke-linecap="round"/>
</g>
		<g transform="matrix(1 0 0 1 -473.93 1049.2005)" id="Layer_1">
<path style="stroke: rgb(123,143,142); stroke-width: 0.0938; stroke-dasharray: none; stroke-linecap: butt; stroke-dashoffset: 0; stroke-linejoin: miter; stroke-miterlimit: 4; is-custom-font: none; font-file-url: none; fill: rgb(123,143,142); fill-rule: nonzero; opacity: 1;" transform=" translate(-285.07, -2279.0847)" d="M 171.97 2254.5601 c 8.3 -1.0801 16.69 -0.3601 25.04 -0.54 c 84.66 -0.01 169.33 0 253.99 -0.01 c 6.04 0.02 12.1 -0.28 18.12 0.4399 c -16.88 1.6401 -33.8 6.8601 -47.44 17.1899 c -8.6 6.1902 -15.55 14.6602 -19.89 24.3301 c -89.26 0.04 -178.52 0.0701 -267.79 -0.01 c -11.35 0.23 -23.81 0.6101 -32.98 8.26 c 3.23 -12.5999 11.69 -23.4299 21.72 -31.46 C 136.75 2261.76 154.38 2256.1399 171.97 2254.5601 z" stroke-linecap="round"/>
</g>
		<g transform="matrix(1 0 0 1 409.1142 1049.7072)" id="Layer_1">
<path style="stroke: rgb(123,143,142); stroke-width: 0.0938; stroke-dasharray: none; stroke-linecap: butt; stroke-dashoffset: 0; stroke-linejoin: miter; stroke-miterlimit: 4; is-custom-font: none; font-file-url: none; fill: rgb(123,143,142); fill-rule: nonzero; opacity: 1;" transform=" translate(-1168.1142, -2279.5914)" d="M 907.69 2255.47 c 5.72 -0.96 11.54 -0.3301 17.31 -0.49 c 135 0 270 0 405 0 c 12.37 0.1401 24.86 -0.7 37.1 1.6699 c 23.22 3.74 46.53 15.9602 58.01 37.28 c 1.37 3.24 4.4 6.6001 3.12 10.3301 c -3.78 -3.4199 -8.4299 -5.9199 -13.47 -6.76 c -12.8 -2.29 -25.84 -1.3201 -38.76 -1.5 c -133.97 -0.02 -267.9301 0.04 -401.9 -0.03 c -6.93 -14.1299 -19.3 -25.04 -33.47 -31.5801 C 930.29 2259.45 919.01 2256.8601 907.69 2255.47 z" stroke-linecap="round"/>
</g>
		<g transform="matrix(1 0 0 1 -508.295 1075.5458)" id="Layer_1">
<path style="stroke: rgb(169,189,188); stroke-width: 0.0938; stroke-dasharray: none; stroke-linecap: butt; stroke-dashoffset: 0; stroke-linejoin: miter; stroke-miterlimit: 4; is-custom-font: none; font-file-url: none; fill: rgb(169,189,188); fill-rule: nonzero; opacity: 1;" transform=" translate(-250.705, -2305.43)" d="M 396.65 2314.1399 c 0.89 -6.3899 3.12 -12.48 6.08 -18.1699 h -0.94 c -89.26 0.04 -178.52 0.0701 -267.79 -0.01 c -11.35 0.23 -23.81 0.6101 -32.98 8.26 c -2.05 2.8601 -2.21 6.46 -2.34 9.8701 l 1.22 0.0698 c 2.02 0.0801 4.05 0.1702 6.08 0.2102 c 91.01 -0.03 182.01 -0.01 273.02 -0.01 c 5.9965 0.01 12.032 -0.3206 18 0.54 v -0.7529 C 396.8834 2314.144 396.7667 2314.1431 396.65 2314.1399 z" stroke-linecap="round"/>
</g>
		<g transform="matrix(1 0 0 1 -70.5901 1075.7978)" id="Layer_1">
<path style="stroke: rgb(92,112,113); stroke-width: 0.0938; stroke-dasharray: none; stroke-linecap: butt; stroke-dashoffset: 0; stroke-linejoin: miter; stroke-miterlimit: 4; is-custom-font: none; font-file-url: none; fill: rgb(92,112,113); fill-rule: nonzero; opacity: 1;" transform=" translate(-688.4099, -2305.682)" d="M 973.21 2295.96 C 783.05 2296.01 592.89 2296 402.73 2295.97 c -2.96 5.6899 -5.19 11.78 -6.08 18.1699 c 0.1166 0.0032 0.2333 0.0044 0.35 0.0073 v 0.7529 c 0.0533 0.0076 0.1068 0.012 0.16 0.0198 c 5.25 0.71 10.56 0.3901 15.84 0.4302 c 27.67 0 55.34 0 83 0 c 18.0901 -0.2102 36.1899 0.4399 54.27 -0.3501 c 16.5601 0.7 33.1499 0.1399 49.73 0.3201 c 126.72 -0.0701 253.45 0.1399 380.1699 -0.1001 C 978.88 2308.47 976.95 2301.79 973.21 2295.96 z" stroke-linecap="round"/>
</g>
		<g transform="matrix(1 0 0 1 443.615 1075.7576)" id="Layer_1">
<path style="stroke: rgb(169,189,188); stroke-width: 0.0938; stroke-dasharray: none; stroke-linecap: butt; stroke-dashoffset: 0; stroke-linejoin: miter; stroke-miterlimit: 4; is-custom-font: none; font-file-url: none; fill: rgb(169,189,188); fill-rule: nonzero; opacity: 1;" transform=" translate(-1202.615, -2305.6418)" d="M 973.21 2295.96 l 0.89 0.01 c 133.97 0.0701 267.9301 0.01 401.9 0.03 c 12.92 0.1799 25.96 -0.79 38.76 1.5 c 5.04 0.8401 9.6899 3.3401 13.47 6.76 c 2.12 3.1199 3.38 6.8 3.79 10.5701 c -0.72 0.0999 -2.17 0.2998 -2.89 0.3899 c -116.04 0.23 -232.09 0.04 -348.13 0.1001 c -33.61 -0.0701 -67.22 0.1399 -100.83 -0.1001 C 978.88 2308.47 976.95 2301.79 973.21 2295.96 z" stroke-linecap="round"/>
</g>
		<g transform="matrix(1 0 0 1 -510.47 1089.2551)" id="Layer_1">
<path style="stroke: rgb(56,75,77); stroke-width: 0.0938; stroke-dasharray: none; stroke-linecap: butt; stroke-dashoffset: 0; stroke-linejoin: miter; stroke-miterlimit: 4; is-custom-font: none; font-file-url: none; fill: rgb(56,75,77); fill-rule: nonzero; opacity: 1;" transform=" translate(-248.53, -2319.1394)" d="M 99.9 2314.1599 c 2.02 0.0801 4.05 0.1702 6.08 0.2102 c 91.01 -0.03 182.01 -0.01 273.02 -0.01 c 6.05 0.01 12.14 -0.3301 18.16 0.5598 c -0.11 2.98 -0.2 5.99 -0.26 9.01 c -41.63 0.3801 -83.27 0.05 -124.91 0.1602 c -50 -0.01 -100.01 0.03 -150.01 -0.02 C 113.64 2324.1499 105.14 2320.78 99.9 2314.1599 z" stroke-linecap="round"/>
</g>
		<g transform="matrix(1 0 0 1 -69.9 1089.5918)" id="Layer_1">
<path style="stroke: rgb(37,58,62); stroke-width: 0.0938; stroke-dasharray: none; stroke-linecap: butt; stroke-dashoffset: 0; stroke-linejoin: miter; stroke-miterlimit: 4; is-custom-font: none; font-file-url: none; fill: rgb(37,58,62); fill-rule: nonzero; opacity: 1;" transform=" translate(-689.1, -2319.4761)" d="M 397.16 2314.9199 c 5.25 0.71 10.56 0.3901 15.84 0.4302 c 27.67 0 55.34 0 83 0 c 18.09 -0.2102 36.19 0.4399 54.27 -0.3501 c 16.56 0.7 33.15 0.1399 49.73 0.3201 c 126.72 -0.0701 253.45 0.1399 380.17 -0.1001 c 0.43 2.8901 0.8 5.8 1.13 8.74 c -138.76 0.1401 -277.53 0.01 -416.3 0.0601 c -56.03 -0.0701 -112.07 0.1199 -168.1 -0.0901 C 396.96 2320.9099 397.05 2317.8999 397.16 2314.9199 z" stroke-linecap="round"/>
</g>
		<g transform="matrix(1 0 0 1 445.65 1089.792)" id="Layer_1">
<path style="stroke: rgb(55,75,75); stroke-width: 0.0938; stroke-dasharray: none; stroke-linecap: butt; stroke-dashoffset: 0; stroke-linejoin: miter; stroke-miterlimit: 4; is-custom-font: none; font-file-url: none; fill: rgb(55,75,75); fill-rule: nonzero; opacity: 1;" transform=" translate(-1204.65, -2319.6762)" d="M 980.17 2315.22 c 33.61 0.24 67.22 0.03 100.83 0.1001 c 116.04 -0.0601 232.09 0.1299 348.13 -0.1001 c -4.79 6.55 -13.4 8.75 -21.12 8.8901 c -117 -0.01 -234.01 0 -351.01 0 c -25.23 -0.1101 -50.47 0.2 -75.7 -0.1501 C 980.97 2321.02 980.6 2318.1101 980.17 2315.22 z" stroke-linecap="round"/>
</g>
</g>
</g>
</svg>